<svg width="275" height="217" viewBox="0 0 275 217" fill="none" xmlns="http://www.w3.org/2000/svg">
<g filter="url(#filter0_b_190_1062)">
<rect x="23" y="172" width="229.167" height="45" rx="10" fill="white"/>
<rect x="23.5" y="172.5" width="228.167" height="44" rx="9.5" stroke="#A2ADC8"/>
</g>
<line x1="29.666" y1="204.833" x2="70.4994" y2="204.833" stroke="#FF003C"/>
<path d="M228 205.333H241.333M241.333 205.333L238 202M241.333 205.333L238 208.667" stroke="#FF003C" stroke-linecap="round" stroke-linejoin="round"/>
<g filter="url(#filter1_b_190_1062)">
<rect width="275" height="194.575" rx="10" fill="white"/>
<rect x="0.5" y="0.5" width="274" height="193.575" rx="9.5" stroke="#A2ADC8"/>
</g>
<path d="M142.302 43.8205C142.702 43.4389 143.335 43.4533 143.716 43.8526L143.868 44.0119C149.973 50.4007 149.743 60.5287 143.354 66.6335L101.056 107.052C100.656 107.433 100.023 107.419 99.6418 107.019L99.4896 106.86C93.3848 100.471 93.6151 90.3433 100.004 84.2385L142.302 43.8205Z" fill="#FF003C" fill-opacity="0.08"/>
<path d="M178.908 82.1288C179.307 81.7473 179.94 81.7617 180.322 82.161L180.474 82.3203C186.579 88.7091 186.348 98.8371 179.96 104.942L137.661 145.36C137.262 145.741 136.629 145.727 136.247 145.328L136.095 145.168C129.99 138.78 130.221 128.652 136.609 122.547L178.908 82.1288Z" fill="#FF003C" fill-opacity="0.08"/>
<path d="M174.97 49.2475C175.37 48.8659 176.003 48.8803 176.384 49.2796L176.536 49.4389C182.641 55.8277 182.411 65.9558 176.022 72.0605L100.204 144.508C99.8045 144.89 99.1715 144.875 98.7899 144.476L98.6377 144.317C92.5329 137.928 92.7632 127.8 99.152 121.695L174.97 49.2475Z" fill="#FF003C" fill-opacity="0.08"/>
<path d="M87.4609 89.7812H89.9023V99.2832C89.9023 100.364 89.668 101.269 89.1992 101.998C88.7305 102.727 88.0924 103.277 87.2852 103.648C86.4844 104.013 85.5892 104.195 84.5996 104.195C83.5775 104.195 82.666 104.013 81.8652 103.648C81.0645 103.277 80.4329 102.727 79.9707 101.998C79.515 101.269 79.2871 100.364 79.2871 99.2832V89.7812H81.7285V99.2832C81.7285 99.9668 81.8457 100.53 82.0801 100.973C82.3145 101.409 82.6465 101.731 83.0762 101.939C83.5059 102.148 84.0137 102.252 84.5996 102.252C85.1855 102.252 85.6901 102.148 86.1133 101.939C86.543 101.731 86.875 101.409 87.1094 100.973C87.3438 100.53 87.4609 99.9668 87.4609 99.2832V89.7812ZM95.1855 89.7812V104H92.7344V89.7812H95.1855ZM104.18 89.7812L98.6426 105.221H96.7969L102.344 89.7812H104.18ZM114.023 89.7812H116.465V99.2832C116.465 100.364 116.23 101.269 115.762 101.998C115.293 102.727 114.655 103.277 113.848 103.648C113.047 104.013 112.152 104.195 111.162 104.195C110.14 104.195 109.229 104.013 108.428 103.648C107.627 103.277 106.995 102.727 106.533 101.998C106.077 101.269 105.85 100.364 105.85 99.2832V89.7812H108.291V99.2832C108.291 99.9668 108.408 100.53 108.643 100.973C108.877 101.409 109.209 101.731 109.639 101.939C110.068 102.148 110.576 102.252 111.162 102.252C111.748 102.252 112.253 102.148 112.676 101.939C113.105 101.731 113.438 101.409 113.672 100.973C113.906 100.53 114.023 99.9668 114.023 99.2832V89.7812ZM120.996 89.7812L124.014 94.9668L127.031 89.7812H129.854L125.557 96.8223L129.961 104H127.109L124.014 98.7168L120.918 104H118.057L122.471 96.8223L118.164 89.7812H120.996ZM140.879 104H137.842L137.861 102.057H140.879C141.758 102.057 142.493 101.865 143.086 101.48C143.685 101.096 144.134 100.546 144.434 99.8301C144.74 99.1139 144.893 98.2611 144.893 97.2715V96.5C144.893 95.7318 144.805 95.0514 144.629 94.459C144.46 93.8665 144.206 93.3685 143.867 92.9648C143.535 92.5612 143.125 92.2552 142.637 92.0469C142.155 91.8385 141.598 91.7344 140.967 91.7344H137.783V89.7812H140.967C141.911 89.7812 142.773 89.9408 143.555 90.2598C144.336 90.5723 145.01 91.0247 145.576 91.6172C146.149 92.2096 146.589 92.9193 146.895 93.7461C147.201 94.5729 147.354 95.4974 147.354 96.5195V97.2715C147.354 98.2936 147.201 99.2181 146.895 100.045C146.589 100.872 146.149 101.581 145.576 102.174C145.003 102.76 144.32 103.212 143.525 103.531C142.738 103.844 141.855 104 140.879 104ZM139.199 89.7812V104H136.748V89.7812H139.199ZM154.238 104.195C153.457 104.195 152.751 104.068 152.119 103.814C151.494 103.554 150.96 103.193 150.518 102.73C150.081 102.268 149.746 101.725 149.512 101.1C149.277 100.475 149.16 99.8008 149.16 99.0781V98.6875C149.16 97.8607 149.281 97.112 149.521 96.4414C149.762 95.7708 150.098 95.1979 150.527 94.7227C150.957 94.2409 151.465 93.873 152.051 93.6191C152.637 93.3652 153.271 93.2383 153.955 93.2383C154.71 93.2383 155.371 93.3652 155.938 93.6191C156.504 93.873 156.973 94.2311 157.344 94.6934C157.721 95.1491 158.001 95.6927 158.184 96.3242C158.372 96.9557 158.467 97.6523 158.467 98.4141V99.4199H150.303V97.7305H156.143V97.5449C156.13 97.1217 156.045 96.7246 155.889 96.3535C155.739 95.9824 155.508 95.6829 155.195 95.4551C154.883 95.2272 154.466 95.1133 153.945 95.1133C153.555 95.1133 153.206 95.1979 152.9 95.3672C152.601 95.5299 152.35 95.7676 152.148 96.0801C151.947 96.3926 151.79 96.7702 151.68 97.2129C151.576 97.6491 151.523 98.1406 151.523 98.6875V99.0781C151.523 99.5404 151.585 99.9701 151.709 100.367C151.839 100.758 152.028 101.1 152.275 101.393C152.523 101.686 152.822 101.917 153.174 102.086C153.525 102.249 153.926 102.33 154.375 102.33C154.941 102.33 155.446 102.216 155.889 101.988C156.331 101.76 156.715 101.438 157.041 101.021L158.281 102.223C158.053 102.555 157.757 102.874 157.393 103.18C157.028 103.479 156.582 103.723 156.055 103.912C155.534 104.101 154.928 104.195 154.238 104.195ZM166.23 101.139C166.23 100.904 166.172 100.693 166.055 100.504C165.938 100.309 165.713 100.133 165.381 99.9766C165.055 99.8203 164.574 99.6771 163.936 99.5469C163.376 99.4232 162.861 99.2767 162.393 99.1074C161.93 98.9316 161.533 98.7201 161.201 98.4727C160.869 98.2253 160.612 97.9323 160.43 97.5938C160.247 97.2552 160.156 96.8646 160.156 96.4219C160.156 95.9922 160.251 95.5853 160.439 95.2012C160.628 94.8171 160.898 94.4785 161.25 94.1855C161.602 93.8926 162.028 93.6615 162.529 93.4922C163.037 93.3229 163.604 93.2383 164.229 93.2383C165.114 93.2383 165.872 93.388 166.504 93.6875C167.142 93.9805 167.63 94.3809 167.969 94.8887C168.307 95.39 168.477 95.9564 168.477 96.5879H166.123C166.123 96.3079 166.051 96.0475 165.908 95.8066C165.771 95.5592 165.563 95.3607 165.283 95.2109C165.003 95.0547 164.652 94.9766 164.229 94.9766C163.825 94.9766 163.49 95.0417 163.223 95.1719C162.962 95.2956 162.767 95.4583 162.637 95.6602C162.513 95.862 162.451 96.0833 162.451 96.3242C162.451 96.5 162.484 96.6595 162.549 96.8027C162.62 96.9395 162.738 97.0664 162.9 97.1836C163.063 97.2943 163.285 97.3984 163.564 97.4961C163.851 97.5938 164.209 97.6882 164.639 97.7793C165.446 97.9486 166.139 98.1667 166.719 98.4336C167.305 98.694 167.754 99.0326 168.066 99.4492C168.379 99.8594 168.535 100.38 168.535 101.012C168.535 101.48 168.434 101.91 168.232 102.301C168.037 102.685 167.751 103.02 167.373 103.307C166.995 103.587 166.543 103.805 166.016 103.961C165.495 104.117 164.909 104.195 164.258 104.195C163.301 104.195 162.49 104.026 161.826 103.688C161.162 103.342 160.658 102.903 160.312 102.369C159.974 101.829 159.805 101.269 159.805 100.689H162.08C162.106 101.126 162.227 101.474 162.441 101.734C162.663 101.988 162.936 102.174 163.262 102.291C163.594 102.402 163.936 102.457 164.287 102.457C164.71 102.457 165.065 102.402 165.352 102.291C165.638 102.174 165.856 102.018 166.006 101.822C166.156 101.62 166.23 101.393 166.23 101.139ZM173.115 93.4336V104H170.752V93.4336H173.115ZM170.596 90.6602C170.596 90.3021 170.713 90.0059 170.947 89.7715C171.188 89.5306 171.52 89.4102 171.943 89.4102C172.36 89.4102 172.689 89.5306 172.93 89.7715C173.171 90.0059 173.291 90.3021 173.291 90.6602C173.291 91.0117 173.171 91.3047 172.93 91.5391C172.689 91.7734 172.36 91.8906 171.943 91.8906C171.52 91.8906 171.188 91.7734 170.947 91.5391C170.713 91.3047 170.596 91.0117 170.596 90.6602ZM182.461 93.4336H184.6V103.707C184.6 104.658 184.398 105.465 183.994 106.129C183.59 106.793 183.027 107.298 182.305 107.643C181.582 107.994 180.745 108.17 179.795 108.17C179.391 108.17 178.942 108.111 178.447 107.994C177.959 107.877 177.484 107.688 177.021 107.428C176.566 107.174 176.185 106.839 175.879 106.422L176.982 105.035C177.36 105.484 177.777 105.813 178.232 106.021C178.688 106.23 179.167 106.334 179.668 106.334C180.208 106.334 180.667 106.233 181.045 106.031C181.429 105.836 181.725 105.546 181.934 105.162C182.142 104.778 182.246 104.309 182.246 103.756V95.8262L182.461 93.4336ZM175.283 98.834V98.6289C175.283 97.8281 175.381 97.099 175.576 96.4414C175.771 95.7773 176.051 95.2077 176.416 94.7324C176.781 94.2507 177.223 93.8828 177.744 93.6289C178.265 93.3685 178.854 93.2383 179.512 93.2383C180.195 93.2383 180.778 93.362 181.26 93.6094C181.748 93.8568 182.155 94.2116 182.48 94.6738C182.806 95.1296 183.06 95.6764 183.242 96.3145C183.431 96.946 183.571 97.6491 183.662 98.4238V99.0781C183.577 99.8333 183.434 100.523 183.232 101.148C183.031 101.773 182.764 102.314 182.432 102.77C182.1 103.225 181.689 103.577 181.201 103.824C180.719 104.072 180.15 104.195 179.492 104.195C178.848 104.195 178.265 104.062 177.744 103.795C177.23 103.528 176.787 103.154 176.416 102.672C176.051 102.19 175.771 101.624 175.576 100.973C175.381 100.315 175.283 99.6022 175.283 98.834ZM177.637 98.6289V98.834C177.637 99.3158 177.682 99.765 177.773 100.182C177.871 100.598 178.018 100.966 178.213 101.285C178.415 101.598 178.669 101.845 178.975 102.027C179.287 102.203 179.655 102.291 180.078 102.291C180.632 102.291 181.084 102.174 181.436 101.939C181.794 101.705 182.067 101.389 182.256 100.992C182.451 100.589 182.588 100.139 182.666 99.6445V97.877C182.627 97.4928 182.546 97.1348 182.422 96.8027C182.305 96.4707 182.145 96.181 181.943 95.9336C181.742 95.6797 181.488 95.4844 181.182 95.3477C180.876 95.2044 180.514 95.1328 180.098 95.1328C179.674 95.1328 179.307 95.224 178.994 95.4062C178.682 95.5885 178.424 95.8392 178.223 96.1582C178.027 96.4772 177.881 96.8483 177.783 97.2715C177.686 97.6947 177.637 98.1471 177.637 98.6289ZM189.375 95.6895V104H187.021V93.4336H189.238L189.375 95.6895ZM188.955 98.3262L188.193 98.3164C188.2 97.5677 188.304 96.8809 188.506 96.2559C188.714 95.6309 189.001 95.0938 189.365 94.6445C189.736 94.1953 190.179 93.8503 190.693 93.6094C191.208 93.362 191.781 93.2383 192.412 93.2383C192.92 93.2383 193.379 93.3099 193.789 93.4531C194.206 93.5898 194.561 93.8145 194.854 94.127C195.153 94.4395 195.381 94.8464 195.537 95.3477C195.693 95.8424 195.771 96.4512 195.771 97.1738V104H193.408V97.1641C193.408 96.6562 193.333 96.2559 193.184 95.9629C193.04 95.6634 192.829 95.4518 192.549 95.3281C192.275 95.1979 191.934 95.1328 191.523 95.1328C191.12 95.1328 190.758 95.2174 190.439 95.3867C190.12 95.556 189.85 95.7871 189.629 96.0801C189.414 96.373 189.248 96.7116 189.131 97.0957C189.014 97.4798 188.955 97.89 188.955 98.3262Z" fill="#1F1F1F"/>
<defs>
<filter id="filter0_b_190_1062" x="15" y="164" width="245.166" height="61" filterUnits="userSpaceOnUse" color-interpolation-filters="sRGB">
<feFlood flood-opacity="0" result="BackgroundImageFix"/>
<feGaussianBlur in="BackgroundImageFix" stdDeviation="4"/>
<feComposite in2="SourceAlpha" operator="in" result="effect1_backgroundBlur_190_1062"/>
<feBlend mode="normal" in="SourceGraphic" in2="effect1_backgroundBlur_190_1062" result="shape"/>
</filter>
<filter id="filter1_b_190_1062" x="-8" y="-8" width="291" height="210.575" filterUnits="userSpaceOnUse" color-interpolation-filters="sRGB">
<feFlood flood-opacity="0" result="BackgroundImageFix"/>
<feGaussianBlur in="BackgroundImageFix" stdDeviation="4"/>
<feComposite in2="SourceAlpha" operator="in" result="effect1_backgroundBlur_190_1062"/>
<feBlend mode="normal" in="SourceGraphic" in2="effect1_backgroundBlur_190_1062" result="shape"/>
</filter>
</defs>
</svg>
