<svg width="20" height="20" viewBox="0 0 20 20" fill="none" xmlns="http://www.w3.org/2000/svg">
<path d="M9.99935 8.33332C11.8403 8.33332 13.3327 6.84094 13.3327 4.99999C13.3327 3.15904 11.8403 1.66666 9.99935 1.66666C8.1584 1.66666 6.66602 3.15904 6.66602 4.99999C6.66602 6.84094 8.1584 8.33332 9.99935 8.33332Z" stroke="#2F2F2F" stroke-width="2"/>
<path d="M12.4993 17.1793C11.7416 17.3849 10.894 17.5 9.99935 17.5C6.77769 17.5 4.16602 16.0076 4.16602 14.1667C4.16602 12.3258 6.77769 10.8333 9.99935 10.8333C13.221 10.8333 15.8327 12.3258 15.8327 14.1667C15.8327 14.4544 15.7688 14.7337 15.6489 15" stroke="#2F2F2F" stroke-width="2" stroke-linecap="round"/>
</svg>
